<svg width="64" height="64" viewBox="0 0 64 64" fill="none" xmlns="http://www.w3.org/2000/svg">
<path d="M14.0835 40C14.0835 39.5858 13.7477 39.25 13.3335 39.25C12.9193 39.25 12.5835 39.5858 12.5835 40H14.0835ZM13.3335 42.6666H12.5835H13.3335ZM51.4168 40C51.4168 39.5858 51.081 39.25 50.6668 39.25C50.2526 39.25 49.9168 39.5858 49.9168 40H51.4168ZM32.5858 13.8018C32.8446 13.4784 32.7921 13.0064 32.4687 12.7477C32.1452 12.4889 31.6733 12.5413 31.4145 12.8648L32.5858 13.8018ZM20.7478 26.1981C20.4891 26.5216 20.5415 26.9935 20.865 27.2523C21.1884 27.5111 21.6604 27.4586 21.9191 27.1352L20.7478 26.1981ZM32.5858 12.8648C32.3271 12.5413 31.8551 12.4889 31.5316 12.7477C31.2082 13.0064 31.1558 13.4784 31.4145 13.8018L32.5858 12.8648ZM42.0812 27.1352C42.3399 27.4586 42.8119 27.5111 43.1354 27.2523C43.4588 26.9935 43.5112 26.5216 43.2525 26.1981L42.0812 27.1352ZM32.7502 13.3333C32.7502 12.9191 32.4144 12.5833 32.0002 12.5833C31.5859 12.5833 31.2502 12.9191 31.2502 13.3333H32.7502ZM31.2502 42.6666C31.2502 43.0809 31.5859 43.4166 32.0002 43.4166C32.4144 43.4166 32.7502 43.0809 32.7502 42.6666H31.2502ZM12.5835 40V42.6666H14.0835V40H12.5835ZM12.5835 42.6666C12.5835 47.4991 16.501 51.4166 21.3335 51.4166V49.9166C17.3294 49.9166 14.0835 46.6707 14.0835 42.6666H12.5835ZM21.3335 51.4166H42.6668V49.9166H21.3335V51.4166ZM42.6668 51.4166C47.4993 51.4166 51.4168 47.4991 51.4168 42.6666H49.9168C49.9168 46.6707 46.6709 49.9166 42.6668 49.9166V51.4166ZM51.4168 42.6666V40H49.9168V42.6666H51.4168ZM31.4145 12.8648L20.7478 26.1981L21.9191 27.1352L32.5858 13.8018L31.4145 12.8648ZM31.4145 13.8018L42.0812 27.1352L43.2525 26.1981L32.5858 12.8648L31.4145 13.8018ZM31.2502 13.3333V42.6666H32.7502V13.3333H31.2502Z" fill="#393939"/>
</svg>
